<?xml version="1.0" standalone="no"?>

<svg viewBox="0 0 1012 242" style="background-color:#ffffff00" version="1.1" xmlns="http://www.w3.org/2000/svg" xmlns:xlink="http://www.w3.org/1999/xlink" xml:space="preserve" x="0px" y="0px" width="100%" height="100%">
	<g id="Katman%201">
		<path id="Elips" d="M 115.2 209.2 C 115.2 192.8 128.5 179.4 144.9 179.4 C 161.2 179.4 174.5 192.8 174.5 209.2 C 174.5 225.7 161.2 239 144.9 239 C 128.5 239 115.2 225.7 115.2 209.2 Z" fill="#4000ff"/>
		<path d="M 114.5 119.9 C 114.5 117.9 116.1 116.3 118 116.3 L 170.3 116.3 C 172.2 116.3 173.8 117.9 173.8 119.9 L 173.8 172.3 C 173.8 174.3 172.2 175.9 170.3 175.9 L 118 175.9 C 116.1 175.9 114.5 174.3 114.5 172.3 L 114.5 119.9 Z" fill="#f2b600"/>
		<path d="M 141.4 51.6 C 142.5 49.9 144.3 49.9 145.4 51.6 L 171.1 106.7 C 172.2 108.3 171.5 109.6 169.5 109.6 L 117.2 109.6 C 115.3 109.6 114.6 108.3 115.7 106.7 L 141.4 51.6 Z" fill="#00c192"/>
		<path d="M 239.9 232.3 C 241.8 236 247.9 239 253.7 239 L 281.4 239 C 287.2 239 290.3 236 288.5 232.3 L 175.1 6.7 C 173.2 3 167 0 161.2 0 L 127.3 0 C 121.5 0 115.3 3 113.5 6.7 L 0.5 232.3 C -1.3 236 1.8 239 7.6 239 L 33.7 239 C 39.5 239 45.7 236 47.5 232.3 C 47.5 232.3 113.7 92.6 121.3 77.3 C 123.2 73.6 126.1 67.6 127.7 63.8 C 132.2 53.9 136.2 44 139.9 34.2 C 141.3 30.4 144.6 30.4 146.1 34.2 C 149.7 43.9 153.6 53.7 158.5 64.2 C 160.2 68 163.3 74 165.1 77.7 C 169.9 87.2 239.9 232.3 239.9 232.3 Z" fill="#222222"/>
		<path d="M 314 239.2 L 356.8 239.2 L 356.8 149.8 C 362.4 150.9 369.7 151.2 377.8 151.2 C 408.1 151.2 435.1 143.1 452.4 125.9 C 465.8 113.3 472.8 94.5 472.8 71.9 C 472.8 49.6 463.6 30.9 449.5 19.3 C 434.4 6.7 411.3 0 379.9 0 C 350.9 0 329.4 2.1 314 4.9 L 314 239.2 L 314 239.2 ZM 356.8 35.1 C 361.4 34 369.7 33 381.6 33 C 411.3 33 429.4 47.1 429.4 73.7 C 429.4 101.6 409.9 117.5 377.8 117.5 C 369 117.5 362.1 117.2 356.8 115.8 L 356.8 35.1 L 356.8 35.1 Z" fill="#222222"/>
		<path d="M 519.5 2.1 L 519.5 239.2 L 562.9 239.2 L 562.9 2.1 L 519.5 2.1 L 519.5 2.1 Z" fill="#222222"/>
		<path d="M 621.5 238.8 C 635.6 240.6 654.6 242 680 242 C 726.3 242 764.1 231.1 787.7 209.7 C 810.2 189.2 824.6 157.4 824.6 115 C 824.6 74.3 810.6 46.1 787.7 27.4 C 765.9 9.1 735.2 0 690.6 0 C 664.9 0 640.5 1.8 621.5 4.9 L 621.5 238.8 L 621.5 238.8 ZM 664.9 36.2 C 670.9 34.8 680.8 33.7 694.5 33.7 C 748.9 33.7 779.3 63.7 779 116.4 C 779 176.9 745.4 208 688.9 207.6 C 680 207.6 670.9 207.6 664.9 206.5 L 664.9 36.2 L 664.9 36.2 Z" fill="#222222"/>
		<path d="M 871.2 239.2 L 1012 239.2 L 1012 203.4 L 914.6 203.4 L 914.6 2.1 L 871.2 2.1 L 871.2 239.2 L 871.2 239.2 Z" fill="#222222"/>
	</g>
</svg>